<mxfile host="app.diagrams.net" modified="2021-05-23T14:13:58.384Z" agent="5.0 (Windows)" etag="ciAeosTN53RTnTkdZVb_" version="14.1.9" type="github">
  <diagram id="a67UG5sdM4cbgnvwOXtN" name="第 1 页">
    <mxGraphModel dx="1303" dy="1974" grid="1" gridSize="10" guides="1" tooltips="1" connect="1" arrows="1" fold="1" page="1" pageScale="1" pageWidth="827" pageHeight="1169" math="0" shadow="0">
      <root>
        <mxCell id="0" />
        <mxCell id="1" parent="0" />
        <mxCell id="unZ9kWCRVRVOXnhJh9XH-38" value="" style="group" vertex="1" connectable="0" parent="1">
          <mxGeometry x="20" y="-710" width="759" height="395" as="geometry" />
        </mxCell>
        <mxCell id="unZ9kWCRVRVOXnhJh9XH-1" value="" style="whiteSpace=wrap;html=1;fillColor=#bac8d3;strokeColor=#23445d;shadow=0;" vertex="1" parent="unZ9kWCRVRVOXnhJh9XH-38">
          <mxGeometry y="155" width="525" height="220" as="geometry" />
        </mxCell>
        <mxCell id="unZ9kWCRVRVOXnhJh9XH-2" value="" style="whiteSpace=wrap;html=1;fillColor=#dae8fc;strokeColor=#6c8ebf;shadow=1;" vertex="1" parent="unZ9kWCRVRVOXnhJh9XH-38">
          <mxGeometry x="121.25" y="105" width="245" height="140" as="geometry" />
        </mxCell>
        <mxCell id="unZ9kWCRVRVOXnhJh9XH-3" value="" style="whiteSpace=wrap;html=1;fillColor=#cdeb8b;strokeColor=#36393d;shadow=0;" vertex="1" parent="unZ9kWCRVRVOXnhJh9XH-38">
          <mxGeometry x="10" y="175" width="76.97" height="80" as="geometry" />
        </mxCell>
        <mxCell id="unZ9kWCRVRVOXnhJh9XH-4" value="" style="whiteSpace=wrap;html=1;fillColor=#cdeb8b;strokeColor=#36393d;shadow=0;" vertex="1" parent="unZ9kWCRVRVOXnhJh9XH-38">
          <mxGeometry x="12.77000000000001" y="275" width="76.97" height="90" as="geometry" />
        </mxCell>
        <mxCell id="unZ9kWCRVRVOXnhJh9XH-5" value="" style="whiteSpace=wrap;html=1;fillColor=#cdeb8b;strokeColor=#36393d;shadow=0;" vertex="1" parent="unZ9kWCRVRVOXnhJh9XH-38">
          <mxGeometry x="607" y="128" width="90" height="50" as="geometry" />
        </mxCell>
        <mxCell id="unZ9kWCRVRVOXnhJh9XH-7" value="" style="whiteSpace=wrap;html=1;fillColor=#e1d5e7;strokeColor=#9673a6;shadow=0;" vertex="1" parent="unZ9kWCRVRVOXnhJh9XH-38">
          <mxGeometry x="401.25" y="165" width="110" height="110" as="geometry" />
        </mxCell>
        <mxCell id="unZ9kWCRVRVOXnhJh9XH-8" value="" style="whiteSpace=wrap;html=1;fillColor=#ffe6cc;strokeColor=#d79b00;shadow=0;" vertex="1" parent="unZ9kWCRVRVOXnhJh9XH-38">
          <mxGeometry x="325" y="285" width="190" height="70" as="geometry" />
        </mxCell>
        <mxCell id="unZ9kWCRVRVOXnhJh9XH-9" value="" style="shape=cylinder3;whiteSpace=wrap;html=1;boundedLbl=1;backgroundOutline=1;size=15;fillColor=#f0a30a;strokeColor=#BD7000;fontColor=#ffffff;" vertex="1" parent="unZ9kWCRVRVOXnhJh9XH-38">
          <mxGeometry x="111" y="272.5" width="84" height="72.5" as="geometry" />
        </mxCell>
        <mxCell id="unZ9kWCRVRVOXnhJh9XH-10" value="" style="shape=cylinder3;whiteSpace=wrap;html=1;boundedLbl=1;backgroundOutline=1;size=15;strokeColor=#6D1F00;fontColor=#ffffff;fillColor=#FFB83D;" vertex="1" parent="unZ9kWCRVRVOXnhJh9XH-38">
          <mxGeometry x="214" y="272.5" width="91" height="72.5" as="geometry" />
        </mxCell>
        <mxCell id="unZ9kWCRVRVOXnhJh9XH-11" style="edgeStyle=orthogonalEdgeStyle;rounded=0;orthogonalLoop=1;jettySize=auto;html=1;fontFamily=Tahoma;fontSize=16;fontColor=#000000;curved=1;dashed=1;strokeWidth=2;fillColor=#e51400;strokeColor=#B20000;" edge="1" parent="unZ9kWCRVRVOXnhJh9XH-38" source="unZ9kWCRVRVOXnhJh9XH-12">
          <mxGeometry relative="1" as="geometry">
            <mxPoint x="385" y="58" as="sourcePoint" />
            <mxPoint x="28" y="145" as="targetPoint" />
            <Array as="points">
              <mxPoint x="28" y="53" />
            </Array>
          </mxGeometry>
        </mxCell>
        <mxCell id="unZ9kWCRVRVOXnhJh9XH-12" value="" style="ellipse;shape=cloud;whiteSpace=wrap;html=1;fillColor=#1ba1e2;strokeColor=#006EAF;fontColor=#ffffff;" vertex="1" parent="unZ9kWCRVRVOXnhJh9XH-38">
          <mxGeometry x="383.75" width="145" height="105" as="geometry" />
        </mxCell>
        <mxCell id="unZ9kWCRVRVOXnhJh9XH-6" style="edgeStyle=orthogonalEdgeStyle;curved=1;rounded=0;orthogonalLoop=1;jettySize=auto;html=1;exitX=0.5;exitY=0;exitDx=0;exitDy=0;entryX=0.464;entryY=0.971;entryDx=0;entryDy=0;entryPerimeter=0;dashed=1;strokeWidth=2;fontFamily=Tahoma;fontSize=16;fontColor=#000000;fillColor=#e51400;strokeColor=#B20000;" edge="1" parent="unZ9kWCRVRVOXnhJh9XH-38" source="unZ9kWCRVRVOXnhJh9XH-7" target="unZ9kWCRVRVOXnhJh9XH-12">
          <mxGeometry relative="1" as="geometry" />
        </mxCell>
        <mxCell id="unZ9kWCRVRVOXnhJh9XH-13" value="Ansible" style="text;html=1;strokeColor=none;fillColor=none;align=center;verticalAlign=middle;whiteSpace=wrap;fontFamily=Tahoma;fontSize=16;" vertex="1" parent="unZ9kWCRVRVOXnhJh9XH-38">
          <mxGeometry x="202.5" y="165" width="82.5" height="20" as="geometry" />
        </mxCell>
        <mxCell id="unZ9kWCRVRVOXnhJh9XH-14" value="&lt;div style=&quot;font-size: 16px;&quot;&gt;Connection&lt;/div&gt;&lt;div style=&quot;font-size: 16px;&quot;&gt;Plugins&lt;br style=&quot;font-size: 16px;&quot;&gt;&lt;/div&gt;" style="text;html=1;strokeColor=none;fillColor=none;align=center;verticalAlign=middle;whiteSpace=wrap;fontFamily=Tahoma;fontSize=16;" vertex="1" parent="unZ9kWCRVRVOXnhJh9XH-38">
          <mxGeometry x="415" y="210" width="82.5" height="20" as="geometry" />
        </mxCell>
        <mxCell id="unZ9kWCRVRVOXnhJh9XH-15" value="&lt;div style=&quot;font-size: 16px;&quot;&gt;Costome&lt;/div&gt;&lt;div style=&quot;font-size: 16px;&quot;&gt;Modules&lt;br style=&quot;font-size: 16px;&quot;&gt;&lt;/div&gt;" style="text;html=1;strokeColor=none;fillColor=none;align=center;verticalAlign=middle;whiteSpace=wrap;fontFamily=Tahoma;fontSize=16;" vertex="1" parent="unZ9kWCRVRVOXnhJh9XH-38">
          <mxGeometry x="221.25" y="310" width="82.5" height="20" as="geometry" />
        </mxCell>
        <mxCell id="unZ9kWCRVRVOXnhJh9XH-16" value="&lt;div&gt;Cores&lt;/div&gt;&lt;div&gt;Modules&lt;br&gt;&lt;/div&gt;" style="text;html=1;strokeColor=none;fillColor=none;align=center;verticalAlign=middle;whiteSpace=wrap;fontFamily=Tahoma;fontSize=16;" vertex="1" parent="unZ9kWCRVRVOXnhJh9XH-38">
          <mxGeometry x="112.75" y="310" width="82.5" height="20" as="geometry" />
        </mxCell>
        <mxCell id="unZ9kWCRVRVOXnhJh9XH-17" value="&lt;div&gt;Host&lt;/div&gt;&lt;div&gt;Inventory&lt;br&gt;&lt;/div&gt;" style="text;html=1;strokeColor=none;fillColor=none;align=center;verticalAlign=middle;whiteSpace=wrap;fontFamily=Tahoma;fontSize=16;" vertex="1" parent="unZ9kWCRVRVOXnhJh9XH-38">
          <mxGeometry x="7.240000000000009" y="205" width="82.5" height="20" as="geometry" />
        </mxCell>
        <mxCell id="unZ9kWCRVRVOXnhJh9XH-18" value="Playbooks" style="text;html=1;strokeColor=none;fillColor=none;align=center;verticalAlign=middle;whiteSpace=wrap;fontFamily=Tahoma;fontSize=16;" vertex="1" parent="unZ9kWCRVRVOXnhJh9XH-38">
          <mxGeometry x="9.5" y="310" width="82.5" height="20" as="geometry" />
        </mxCell>
        <mxCell id="unZ9kWCRVRVOXnhJh9XH-19" value="&lt;div&gt;Plugins&lt;/div&gt;&lt;div&gt;Email,logging,other&lt;br&gt;&lt;/div&gt;" style="text;html=1;strokeColor=none;fillColor=none;align=center;verticalAlign=middle;whiteSpace=wrap;fontFamily=Tahoma;fontSize=16;" vertex="1" parent="unZ9kWCRVRVOXnhJh9XH-38">
          <mxGeometry x="380" y="305" width="82.5" height="20" as="geometry" />
        </mxCell>
        <mxCell id="unZ9kWCRVRVOXnhJh9XH-20" value="host1" style="text;html=1;strokeColor=none;fillColor=none;align=center;verticalAlign=middle;whiteSpace=wrap;fontFamily=Tahoma;fontSize=16;" vertex="1" parent="unZ9kWCRVRVOXnhJh9XH-38">
          <mxGeometry x="617" y="138" width="70" height="25" as="geometry" />
        </mxCell>
        <mxCell id="unZ9kWCRVRVOXnhJh9XH-21" value="&lt;div&gt;Pubilc/Private&lt;/div&gt;&lt;div&gt;Cloud&lt;br&gt;&lt;/div&gt;" style="text;html=1;strokeColor=none;fillColor=none;align=center;verticalAlign=middle;whiteSpace=wrap;fontFamily=Tahoma;fontSize=16;" vertex="1" parent="unZ9kWCRVRVOXnhJh9XH-38">
          <mxGeometry x="415" y="51.5" width="82.5" height="20" as="geometry" />
        </mxCell>
        <mxCell id="unZ9kWCRVRVOXnhJh9XH-22" value="" style="curved=1;endArrow=classic;html=1;fontFamily=Tahoma;fontSize=16;fontColor=#000000;strokeColor=none;" edge="1" parent="unZ9kWCRVRVOXnhJh9XH-38">
          <mxGeometry width="50" height="50" relative="1" as="geometry">
            <mxPoint x="375.0000000000002" y="45" as="sourcePoint" />
            <mxPoint x="35" y="135" as="targetPoint" />
            <Array as="points">
              <mxPoint x="305" y="35" />
              <mxPoint x="165" y="55" />
            </Array>
          </mxGeometry>
        </mxCell>
        <mxCell id="unZ9kWCRVRVOXnhJh9XH-23" value="" style="whiteSpace=wrap;html=1;fillColor=#cdeb8b;strokeColor=#36393d;shadow=0;" vertex="1" parent="unZ9kWCRVRVOXnhJh9XH-38">
          <mxGeometry x="607" y="197" width="90" height="50" as="geometry" />
        </mxCell>
        <mxCell id="unZ9kWCRVRVOXnhJh9XH-24" value="host2" style="text;html=1;strokeColor=none;fillColor=none;align=center;verticalAlign=middle;whiteSpace=wrap;fontFamily=Tahoma;fontSize=16;" vertex="1" parent="unZ9kWCRVRVOXnhJh9XH-38">
          <mxGeometry x="617" y="207" width="70" height="25" as="geometry" />
        </mxCell>
        <mxCell id="unZ9kWCRVRVOXnhJh9XH-25" value="" style="whiteSpace=wrap;html=1;fillColor=#cdeb8b;strokeColor=#36393d;shadow=0;" vertex="1" parent="unZ9kWCRVRVOXnhJh9XH-38">
          <mxGeometry x="607" y="264" width="90" height="50" as="geometry" />
        </mxCell>
        <mxCell id="unZ9kWCRVRVOXnhJh9XH-26" value="host3" style="text;html=1;strokeColor=none;fillColor=none;align=center;verticalAlign=middle;whiteSpace=wrap;fontFamily=Tahoma;fontSize=16;" vertex="1" parent="unZ9kWCRVRVOXnhJh9XH-38">
          <mxGeometry x="617" y="274" width="70" height="25" as="geometry" />
        </mxCell>
        <mxCell id="unZ9kWCRVRVOXnhJh9XH-27" value="" style="whiteSpace=wrap;html=1;fillColor=#cdeb8b;strokeColor=#36393d;shadow=0;" vertex="1" parent="unZ9kWCRVRVOXnhJh9XH-38">
          <mxGeometry x="581.5" y="335" width="90" height="50" as="geometry" />
        </mxCell>
        <mxCell id="unZ9kWCRVRVOXnhJh9XH-28" value="" style="whiteSpace=wrap;html=1;fillColor=#cdeb8b;strokeColor=#36393d;shadow=0;" vertex="1" parent="unZ9kWCRVRVOXnhJh9XH-38">
          <mxGeometry x="595.25" y="345" width="90" height="50" as="geometry" />
        </mxCell>
        <mxCell id="unZ9kWCRVRVOXnhJh9XH-29" value="host N" style="text;html=1;strokeColor=none;fillColor=none;align=center;verticalAlign=middle;whiteSpace=wrap;fontFamily=Tahoma;fontSize=16;" vertex="1" parent="unZ9kWCRVRVOXnhJh9XH-38">
          <mxGeometry x="607" y="360" width="70" height="25" as="geometry" />
        </mxCell>
        <mxCell id="unZ9kWCRVRVOXnhJh9XH-30" value="" style="shape=flexArrow;endArrow=classic;html=1;strokeWidth=1;fontFamily=Tahoma;fontSize=16;fontColor=#000000;fillColor=#1ba1e2;strokeColor=#006EAF;" edge="1" parent="unZ9kWCRVRVOXnhJh9XH-38">
          <mxGeometry width="50" height="50" relative="1" as="geometry">
            <mxPoint x="202.5" y="65" as="sourcePoint" />
            <mxPoint x="202.75" y="105" as="targetPoint" />
          </mxGeometry>
        </mxCell>
        <mxCell id="unZ9kWCRVRVOXnhJh9XH-31" value="" style="shape=flexArrow;endArrow=classic;html=1;strokeWidth=1;fontFamily=Tahoma;fontSize=16;fontColor=#000000;fillColor=#1ba1e2;strokeColor=#006EAF;" edge="1" parent="unZ9kWCRVRVOXnhJh9XH-38">
          <mxGeometry width="50" height="50" relative="1" as="geometry">
            <mxPoint x="300.25" y="65" as="sourcePoint" />
            <mxPoint x="300.5" y="105" as="targetPoint" />
          </mxGeometry>
        </mxCell>
        <mxCell id="unZ9kWCRVRVOXnhJh9XH-32" value="用户请求" style="text;html=1;strokeColor=none;fillColor=none;align=center;verticalAlign=middle;whiteSpace=wrap;fontFamily=Verdana;fontSize=16;" vertex="1" parent="unZ9kWCRVRVOXnhJh9XH-38">
          <mxGeometry x="210" y="80" width="82.5" height="20" as="geometry" />
        </mxCell>
        <mxCell id="unZ9kWCRVRVOXnhJh9XH-33" value="" style="shape=flexArrow;endArrow=classic;html=1;strokeWidth=1;fontFamily=Tahoma;fontSize=16;fontColor=#000000;fillColor=#f0a30a;strokeColor=#BD7000;" edge="1" parent="unZ9kWCRVRVOXnhJh9XH-38">
          <mxGeometry width="50" height="50" relative="1" as="geometry">
            <mxPoint x="542" y="175" as="sourcePoint" />
            <mxPoint x="584.9999999999998" y="175" as="targetPoint" />
          </mxGeometry>
        </mxCell>
        <mxCell id="unZ9kWCRVRVOXnhJh9XH-34" value="" style="shape=flexArrow;endArrow=classic;html=1;strokeWidth=1;fontFamily=Tahoma;fontSize=16;fontColor=#000000;fillColor=#f0a30a;strokeColor=#BD7000;" edge="1" parent="unZ9kWCRVRVOXnhJh9XH-38">
          <mxGeometry width="50" height="50" relative="1" as="geometry">
            <mxPoint x="542" y="250" as="sourcePoint" />
            <mxPoint x="584.9999999999998" y="250" as="targetPoint" />
          </mxGeometry>
        </mxCell>
        <mxCell id="unZ9kWCRVRVOXnhJh9XH-35" value="" style="shape=flexArrow;endArrow=classic;html=1;strokeWidth=1;fontFamily=Tahoma;fontSize=16;fontColor=#000000;fillColor=#f0a30a;strokeColor=#BD7000;" edge="1" parent="unZ9kWCRVRVOXnhJh9XH-38">
          <mxGeometry width="50" height="50" relative="1" as="geometry">
            <mxPoint x="542" y="213" as="sourcePoint" />
            <mxPoint x="584.9999999999998" y="213" as="targetPoint" />
          </mxGeometry>
        </mxCell>
        <mxCell id="unZ9kWCRVRVOXnhJh9XH-36" value="" style="shape=curlyBracket;whiteSpace=wrap;html=1;rounded=1;fillColor=#FF8000;fontFamily=Verdana;fontSize=16;fontColor=#000000;shadow=0;direction=west;" vertex="1" parent="unZ9kWCRVRVOXnhJh9XH-38">
          <mxGeometry x="699" y="148" width="60" height="235" as="geometry" />
        </mxCell>
        <mxCell id="unZ9kWCRVRVOXnhJh9XH-37" value="多个远程主机" style="text;html=1;strokeColor=none;fillColor=none;align=center;verticalAlign=middle;whiteSpace=wrap;fontFamily=Tahoma;fontSize=16;" vertex="1" parent="unZ9kWCRVRVOXnhJh9XH-38">
          <mxGeometry x="736" y="139" width="20" height="135" as="geometry" />
        </mxCell>
        <mxCell id="unZ9kWCRVRVOXnhJh9XH-49" value="" style="group" vertex="1" connectable="0" parent="1">
          <mxGeometry x="90.00000000000001" y="-250" width="597.98" height="71.25" as="geometry" />
        </mxCell>
        <mxCell id="unZ9kWCRVRVOXnhJh9XH-39" value="" style="shape=step;perimeter=stepPerimeter;whiteSpace=wrap;html=1;fixedSize=1;size=50;" vertex="1" parent="unZ9kWCRVRVOXnhJh9XH-49">
          <mxGeometry x="127.97999999999999" width="170" height="70" as="geometry" />
        </mxCell>
        <mxCell id="unZ9kWCRVRVOXnhJh9XH-40" value="" style="shape=offPageConnector;whiteSpace=wrap;html=1;rotation=-90;align=left;size=0.4013287725299302;labelBackgroundColor=#ffffff;fillColor=#fff2cc;strokeColor=#d6b656;" vertex="1" parent="unZ9kWCRVRVOXnhJh9XH-49">
          <mxGeometry x="41.00999999999999" y="-41.00999999999999" width="70" height="152.02" as="geometry" />
        </mxCell>
        <mxCell id="unZ9kWCRVRVOXnhJh9XH-41" value="&lt;font style=&quot;font-size: 16px&quot;&gt;&lt;span&gt;数据采集层&lt;/span&gt;&lt;/font&gt;" style="text;html=1;strokeColor=none;fillColor=none;align=center;verticalAlign=middle;whiteSpace=wrap;fontFamily=Comic Sans MS;fontSize=18;" vertex="1" parent="unZ9kWCRVRVOXnhJh9XH-49">
          <mxGeometry x="15.47999999999999" y="22.5" width="90" height="25" as="geometry" />
        </mxCell>
        <mxCell id="unZ9kWCRVRVOXnhJh9XH-42" value="&lt;font style=&quot;font-size: 16px&quot;&gt;&lt;span&gt;数据处理层&lt;/span&gt;&lt;/font&gt;" style="text;html=1;strokeColor=none;fillColor=none;align=center;verticalAlign=middle;whiteSpace=wrap;fontFamily=Comic Sans MS;fontSize=18;" vertex="1" parent="unZ9kWCRVRVOXnhJh9XH-49">
          <mxGeometry x="175.48" y="22.5" width="100" height="27.5" as="geometry" />
        </mxCell>
        <mxCell id="unZ9kWCRVRVOXnhJh9XH-43" value="" style="shape=step;perimeter=stepPerimeter;whiteSpace=wrap;html=1;fixedSize=1;size=50;fillColor=#f8cecc;strokeColor=#b85450;" vertex="1" parent="unZ9kWCRVRVOXnhJh9XH-49">
          <mxGeometry x="127.97999999999999" width="170" height="70" as="geometry" />
        </mxCell>
        <mxCell id="unZ9kWCRVRVOXnhJh9XH-44" value="&lt;font style=&quot;font-size: 16px&quot;&gt;&lt;span&gt;数据处理层&lt;/span&gt;&lt;/font&gt;" style="text;html=1;strokeColor=none;fillColor=none;align=center;verticalAlign=middle;whiteSpace=wrap;fontFamily=Comic Sans MS;fontSize=18;" vertex="1" parent="unZ9kWCRVRVOXnhJh9XH-49">
          <mxGeometry x="175.48" y="22.5" width="100" height="27.5" as="geometry" />
        </mxCell>
        <mxCell id="unZ9kWCRVRVOXnhJh9XH-45" value="" style="shape=step;perimeter=stepPerimeter;whiteSpace=wrap;html=1;fixedSize=1;size=50;fillColor=#e1d5e7;strokeColor=#9673a6;" vertex="1" parent="unZ9kWCRVRVOXnhJh9XH-49">
          <mxGeometry x="277.98" width="170" height="70" as="geometry" />
        </mxCell>
        <mxCell id="unZ9kWCRVRVOXnhJh9XH-46" value="&lt;font style=&quot;font-size: 16px&quot;&gt;&lt;span&gt;数据存储层&lt;/span&gt;&lt;/font&gt;" style="text;html=1;strokeColor=none;fillColor=none;align=center;verticalAlign=middle;whiteSpace=wrap;fontFamily=Comic Sans MS;fontSize=18;" vertex="1" parent="unZ9kWCRVRVOXnhJh9XH-49">
          <mxGeometry x="325.48" y="22.5" width="100" height="27.5" as="geometry" />
        </mxCell>
        <mxCell id="unZ9kWCRVRVOXnhJh9XH-47" value="" style="shape=step;perimeter=stepPerimeter;whiteSpace=wrap;html=1;fixedSize=1;size=50;fillColor=#d5e8d4;strokeColor=#82b366;" vertex="1" parent="unZ9kWCRVRVOXnhJh9XH-49">
          <mxGeometry x="427.98" y="1.25" width="170" height="70" as="geometry" />
        </mxCell>
        <mxCell id="unZ9kWCRVRVOXnhJh9XH-48" value="&lt;font style=&quot;font-size: 16px&quot;&gt;&lt;span&gt;数据展示层&lt;/span&gt;&lt;/font&gt;" style="text;html=1;strokeColor=none;fillColor=none;align=center;verticalAlign=middle;whiteSpace=wrap;fontFamily=Comic Sans MS;fontSize=18;" vertex="1" parent="unZ9kWCRVRVOXnhJh9XH-49">
          <mxGeometry x="475.48" y="20" width="100" height="27.5" as="geometry" />
        </mxCell>
        <mxCell id="unZ9kWCRVRVOXnhJh9XH-123" value="" style="group" vertex="1" connectable="0" parent="1">
          <mxGeometry x="20" y="-1140" width="840" height="360" as="geometry" />
        </mxCell>
        <mxCell id="unZ9kWCRVRVOXnhJh9XH-86" value="" style="rounded=0;whiteSpace=wrap;html=1;shadow=1;fillColor=#dae8fc;fontFamily=Verdana;fontSize=16;strokeColor=#6c8ebf;" vertex="1" parent="unZ9kWCRVRVOXnhJh9XH-123">
          <mxGeometry x="310" y="280" width="200" height="80" as="geometry" />
        </mxCell>
        <mxCell id="unZ9kWCRVRVOXnhJh9XH-87" value="" style="shape=cylinder3;whiteSpace=wrap;html=1;boundedLbl=1;backgroundOutline=1;size=15;shadow=0;fillColor=#fad7ac;fontFamily=Verdana;fontSize=16;strokeColor=#b46504;" vertex="1" parent="unZ9kWCRVRVOXnhJh9XH-123">
          <mxGeometry x="5" y="162" width="90" height="90" as="geometry" />
        </mxCell>
        <mxCell id="unZ9kWCRVRVOXnhJh9XH-88" value="Inventory" style="text;html=1;strokeColor=none;fillColor=none;align=center;verticalAlign=middle;whiteSpace=wrap;rounded=0;shadow=1;fontFamily=Verdana;fontSize=16;fontColor=#000000;" vertex="1" parent="unZ9kWCRVRVOXnhJh9XH-123">
          <mxGeometry y="72" width="100" height="34" as="geometry" />
        </mxCell>
        <mxCell id="unZ9kWCRVRVOXnhJh9XH-89" value="" style="shape=cylinder3;whiteSpace=wrap;html=1;boundedLbl=1;backgroundOutline=1;size=15;shadow=0;fillColor=#fad7ac;fontFamily=Verdana;fontSize=16;strokeColor=#b46504;" vertex="1" parent="unZ9kWCRVRVOXnhJh9XH-123">
          <mxGeometry x="5" y="32" width="90" height="90" as="geometry" />
        </mxCell>
        <mxCell id="unZ9kWCRVRVOXnhJh9XH-91" value="Playbooks" style="text;html=1;strokeColor=none;fillColor=none;align=center;verticalAlign=middle;whiteSpace=wrap;rounded=0;shadow=0;fontFamily=Verdana;fontSize=16;fontColor=#000000;" vertex="1" parent="unZ9kWCRVRVOXnhJh9XH-123">
          <mxGeometry y="202" width="100" height="34" as="geometry" />
        </mxCell>
        <mxCell id="unZ9kWCRVRVOXnhJh9XH-93" value="Inventory" style="text;html=1;strokeColor=none;fillColor=none;align=center;verticalAlign=middle;whiteSpace=wrap;rounded=0;shadow=1;fontFamily=Verdana;fontSize=16;fontColor=#000000;" vertex="1" parent="unZ9kWCRVRVOXnhJh9XH-123">
          <mxGeometry y="72" width="100" height="34" as="geometry" />
        </mxCell>
        <mxCell id="unZ9kWCRVRVOXnhJh9XH-94" value="" style="rounded=0;whiteSpace=wrap;html=1;shadow=1;fillColor=#dae8fc;fontFamily=Verdana;fontSize=16;strokeColor=#6c8ebf;" vertex="1" parent="unZ9kWCRVRVOXnhJh9XH-123">
          <mxGeometry x="160" y="115" width="110" height="50" as="geometry" />
        </mxCell>
        <mxCell id="unZ9kWCRVRVOXnhJh9XH-90" style="edgeStyle=none;rounded=0;orthogonalLoop=1;jettySize=auto;html=1;exitX=1;exitY=0.5;exitDx=0;exitDy=0;entryX=0.127;entryY=1.02;entryDx=0;entryDy=0;entryPerimeter=0;strokeWidth=1;fontFamily=Verdana;fontSize=16;fontColor=#000000;" edge="1" parent="unZ9kWCRVRVOXnhJh9XH-123" source="unZ9kWCRVRVOXnhJh9XH-91" target="unZ9kWCRVRVOXnhJh9XH-94">
          <mxGeometry relative="1" as="geometry" />
        </mxCell>
        <mxCell id="unZ9kWCRVRVOXnhJh9XH-92" style="rounded=0;orthogonalLoop=1;jettySize=auto;html=1;exitX=1;exitY=0.5;exitDx=0;exitDy=0;entryX=0;entryY=0.5;entryDx=0;entryDy=0;strokeWidth=1;fontFamily=Verdana;fontSize=16;fontColor=#000000;" edge="1" parent="unZ9kWCRVRVOXnhJh9XH-123" source="unZ9kWCRVRVOXnhJh9XH-93" target="unZ9kWCRVRVOXnhJh9XH-94">
          <mxGeometry relative="1" as="geometry" />
        </mxCell>
        <mxCell id="unZ9kWCRVRVOXnhJh9XH-95" value="Control Node" style="text;html=1;strokeColor=none;fillColor=none;align=center;verticalAlign=middle;whiteSpace=wrap;rounded=0;shadow=1;fontFamily=Verdana;fontSize=16;fontColor=#000000;" vertex="1" parent="unZ9kWCRVRVOXnhJh9XH-123">
          <mxGeometry x="187" y="135" width="56" height="15" as="geometry" />
        </mxCell>
        <mxCell id="unZ9kWCRVRVOXnhJh9XH-97" value="" style="rounded=0;whiteSpace=wrap;html=1;shadow=1;fillColor=#dae8fc;fontFamily=Verdana;fontSize=16;strokeColor=#6c8ebf;" vertex="1" parent="unZ9kWCRVRVOXnhJh9XH-123">
          <mxGeometry x="360" width="110" height="50" as="geometry" />
        </mxCell>
        <mxCell id="unZ9kWCRVRVOXnhJh9XH-98" value="SSH" style="text;html=1;strokeColor=none;fillColor=none;align=center;verticalAlign=middle;whiteSpace=wrap;rounded=0;shadow=1;fontFamily=Verdana;fontSize=16;fontColor=#000000;" vertex="1" parent="unZ9kWCRVRVOXnhJh9XH-123">
          <mxGeometry x="387" y="15" width="56" height="20" as="geometry" />
        </mxCell>
        <mxCell id="unZ9kWCRVRVOXnhJh9XH-100" value="" style="rounded=0;whiteSpace=wrap;html=1;shadow=1;fillColor=#dae8fc;fontFamily=Verdana;fontSize=16;strokeColor=#6c8ebf;" vertex="1" parent="unZ9kWCRVRVOXnhJh9XH-123">
          <mxGeometry x="360" y="65" width="110" height="50" as="geometry" />
        </mxCell>
        <mxCell id="unZ9kWCRVRVOXnhJh9XH-101" value="ZeroMQ" style="text;html=1;strokeColor=none;fillColor=none;align=center;verticalAlign=middle;whiteSpace=wrap;rounded=0;shadow=1;fontFamily=Verdana;fontSize=16;fontColor=#000000;" vertex="1" parent="unZ9kWCRVRVOXnhJh9XH-123">
          <mxGeometry x="387" y="80" width="56" height="20" as="geometry" />
        </mxCell>
        <mxCell id="unZ9kWCRVRVOXnhJh9XH-102" value="" style="rounded=0;whiteSpace=wrap;html=1;shadow=1;fillColor=#dae8fc;fontFamily=Verdana;fontSize=16;strokeColor=#6c8ebf;" vertex="1" parent="unZ9kWCRVRVOXnhJh9XH-123">
          <mxGeometry x="360" y="135" width="110" height="50" as="geometry" />
        </mxCell>
        <mxCell id="unZ9kWCRVRVOXnhJh9XH-103" value="Local" style="text;html=1;strokeColor=none;fillColor=none;align=center;verticalAlign=middle;whiteSpace=wrap;rounded=0;shadow=1;fontFamily=Verdana;fontSize=16;fontColor=#000000;" vertex="1" parent="unZ9kWCRVRVOXnhJh9XH-123">
          <mxGeometry x="387" y="150" width="56" height="20" as="geometry" />
        </mxCell>
        <mxCell id="unZ9kWCRVRVOXnhJh9XH-104" value="" style="rounded=0;whiteSpace=wrap;html=1;shadow=1;fillColor=#dae8fc;fontFamily=Verdana;fontSize=16;strokeColor=#6c8ebf;" vertex="1" parent="unZ9kWCRVRVOXnhJh9XH-123">
          <mxGeometry x="360" y="202" width="110" height="50" as="geometry" />
        </mxCell>
        <mxCell id="unZ9kWCRVRVOXnhJh9XH-105" value="&lt;div&gt;Kerberos&lt;/div&gt;&lt;div&gt;LDAP...&lt;br&gt;&lt;/div&gt;" style="text;html=1;strokeColor=none;fillColor=none;align=center;verticalAlign=middle;whiteSpace=wrap;rounded=0;shadow=1;fontFamily=Verdana;fontSize=16;fontColor=#000000;" vertex="1" parent="unZ9kWCRVRVOXnhJh9XH-123">
          <mxGeometry x="387" y="217" width="56" height="20" as="geometry" />
        </mxCell>
        <mxCell id="unZ9kWCRVRVOXnhJh9XH-106" value="&lt;div align=&quot;center&quot;&gt;Plugins&lt;/div&gt;&lt;div align=&quot;center&quot;&gt;Email,logging,other&lt;br&gt;&lt;/div&gt;" style="text;whiteSpace=wrap;html=1;fontSize=16;fontFamily=Verdana;fontColor=#000000;align=center;" vertex="1" parent="unZ9kWCRVRVOXnhJh9XH-123">
          <mxGeometry x="320" y="295" width="180" height="50" as="geometry" />
        </mxCell>
        <mxCell id="unZ9kWCRVRVOXnhJh9XH-107" value="" style="rounded=0;whiteSpace=wrap;html=1;shadow=0;fillColor=#dae8fc;fontFamily=Verdana;fontSize=16;strokeColor=#6c8ebf;" vertex="1" parent="unZ9kWCRVRVOXnhJh9XH-123">
          <mxGeometry x="650" y="40" width="80" height="50" as="geometry" />
        </mxCell>
        <mxCell id="unZ9kWCRVRVOXnhJh9XH-96" style="edgeStyle=orthogonalEdgeStyle;curved=1;rounded=0;orthogonalLoop=1;jettySize=auto;html=1;exitX=1;exitY=0.5;exitDx=0;exitDy=0;entryX=0;entryY=0.75;entryDx=0;entryDy=0;strokeWidth=1;fontFamily=Verdana;fontSize=16;fontColor=#000000;" edge="1" parent="unZ9kWCRVRVOXnhJh9XH-123" source="unZ9kWCRVRVOXnhJh9XH-97" target="unZ9kWCRVRVOXnhJh9XH-107">
          <mxGeometry relative="1" as="geometry" />
        </mxCell>
        <mxCell id="unZ9kWCRVRVOXnhJh9XH-108" value="" style="rounded=0;whiteSpace=wrap;html=1;shadow=0;fillColor=#dae8fc;fontFamily=Verdana;fontSize=16;strokeColor=#6c8ebf;" vertex="1" parent="unZ9kWCRVRVOXnhJh9XH-123">
          <mxGeometry x="662" y="55" width="80" height="50" as="geometry" />
        </mxCell>
        <mxCell id="unZ9kWCRVRVOXnhJh9XH-109" value="" style="rounded=0;whiteSpace=wrap;html=1;shadow=0;fillColor=#dae8fc;fontFamily=Verdana;fontSize=16;strokeColor=#6c8ebf;" vertex="1" parent="unZ9kWCRVRVOXnhJh9XH-123">
          <mxGeometry x="680" y="70" width="80" height="50" as="geometry" />
        </mxCell>
        <mxCell id="unZ9kWCRVRVOXnhJh9XH-110" value="Hosts" style="text;html=1;strokeColor=none;fillColor=none;align=center;verticalAlign=middle;whiteSpace=wrap;rounded=0;shadow=1;fontFamily=Verdana;fontSize=16;fontColor=#000000;" vertex="1" parent="unZ9kWCRVRVOXnhJh9XH-123">
          <mxGeometry x="692" y="85" width="56" height="20" as="geometry" />
        </mxCell>
        <mxCell id="unZ9kWCRVRVOXnhJh9XH-111" value="" style="rounded=0;whiteSpace=wrap;html=1;shadow=0;fillColor=#dae8fc;fontFamily=Verdana;fontSize=16;strokeColor=#6c8ebf;" vertex="1" parent="unZ9kWCRVRVOXnhJh9XH-123">
          <mxGeometry x="651" y="187" width="80" height="50" as="geometry" />
        </mxCell>
        <mxCell id="unZ9kWCRVRVOXnhJh9XH-99" style="edgeStyle=orthogonalEdgeStyle;curved=1;rounded=0;orthogonalLoop=1;jettySize=auto;html=1;exitX=1;exitY=0.5;exitDx=0;exitDy=0;entryX=0;entryY=0.75;entryDx=0;entryDy=0;strokeWidth=1;fontFamily=Verdana;fontSize=16;fontColor=#000000;" edge="1" parent="unZ9kWCRVRVOXnhJh9XH-123" source="unZ9kWCRVRVOXnhJh9XH-100" target="unZ9kWCRVRVOXnhJh9XH-111">
          <mxGeometry relative="1" as="geometry" />
        </mxCell>
        <mxCell id="unZ9kWCRVRVOXnhJh9XH-112" value="" style="rounded=0;whiteSpace=wrap;html=1;shadow=0;fillColor=#dae8fc;fontFamily=Verdana;fontSize=16;strokeColor=#6c8ebf;" vertex="1" parent="unZ9kWCRVRVOXnhJh9XH-123">
          <mxGeometry x="663" y="202" width="80" height="50" as="geometry" />
        </mxCell>
        <mxCell id="unZ9kWCRVRVOXnhJh9XH-113" value="" style="rounded=0;whiteSpace=wrap;html=1;shadow=0;fillColor=#dae8fc;fontFamily=Verdana;fontSize=16;strokeColor=#6c8ebf;" vertex="1" parent="unZ9kWCRVRVOXnhJh9XH-123">
          <mxGeometry x="681" y="217" width="80" height="50" as="geometry" />
        </mxCell>
        <mxCell id="unZ9kWCRVRVOXnhJh9XH-114" value="&lt;div&gt;ZeroMQ&lt;/div&gt;&lt;div&gt;Hosts&lt;br&gt;&lt;/div&gt;" style="text;html=1;strokeColor=none;fillColor=none;align=center;verticalAlign=middle;whiteSpace=wrap;rounded=0;shadow=1;fontFamily=Verdana;fontSize=16;fontColor=#000000;" vertex="1" parent="unZ9kWCRVRVOXnhJh9XH-123">
          <mxGeometry x="693" y="232" width="56" height="20" as="geometry" />
        </mxCell>
        <mxCell id="unZ9kWCRVRVOXnhJh9XH-115" value="" style="shape=curlyBracket;whiteSpace=wrap;html=1;rounded=1;shadow=0;fillColor=#FFB83D;fontFamily=Verdana;fontSize=16;fontColor=#000000;direction=west;" vertex="1" parent="unZ9kWCRVRVOXnhJh9XH-123">
          <mxGeometry x="779" y="60" width="30" height="190" as="geometry" />
        </mxCell>
        <mxCell id="unZ9kWCRVRVOXnhJh9XH-116" value="执行模块或编排" style="text;html=1;strokeColor=none;fillColor=none;align=center;verticalAlign=middle;whiteSpace=wrap;rounded=0;shadow=0;fontFamily=Verdana;fontSize=16;fontColor=#000000;" vertex="1" parent="unZ9kWCRVRVOXnhJh9XH-123">
          <mxGeometry x="819" y="91" width="21" height="128" as="geometry" />
        </mxCell>
        <mxCell id="unZ9kWCRVRVOXnhJh9XH-117" value="" style="shape=curlyBracket;whiteSpace=wrap;html=1;rounded=1;shadow=0;fillColor=#FFB83D;fontFamily=Verdana;fontSize=16;fontColor=#000000;" vertex="1" parent="unZ9kWCRVRVOXnhJh9XH-123">
          <mxGeometry x="324" y="10" width="36" height="210" as="geometry" />
        </mxCell>
        <mxCell id="unZ9kWCRVRVOXnhJh9XH-118" value="连接插件" style="text;html=1;strokeColor=none;fillColor=none;align=center;verticalAlign=middle;whiteSpace=wrap;rounded=0;shadow=0;fontFamily=Verdana;fontSize=16;fontColor=#000000;" vertex="1" parent="unZ9kWCRVRVOXnhJh9XH-123">
          <mxGeometry x="316" y="18" width="20" height="98" as="geometry" />
        </mxCell>
        <mxCell id="unZ9kWCRVRVOXnhJh9XH-119" value="" style="rounded=0;whiteSpace=wrap;html=1;shadow=1;fillColor=#fad7ac;fontFamily=Verdana;fontSize=16;strokeColor=#b46504;" vertex="1" parent="unZ9kWCRVRVOXnhJh9XH-123">
          <mxGeometry x="105" y="285" width="150" height="60" as="geometry" />
        </mxCell>
        <mxCell id="unZ9kWCRVRVOXnhJh9XH-120" style="edgeStyle=none;rounded=0;orthogonalLoop=1;jettySize=auto;html=1;entryX=0.445;entryY=1;entryDx=0;entryDy=0;entryPerimeter=0;strokeWidth=1;fontFamily=Verdana;fontSize=16;fontColor=#000000;" edge="1" parent="unZ9kWCRVRVOXnhJh9XH-123" target="unZ9kWCRVRVOXnhJh9XH-94">
          <mxGeometry relative="1" as="geometry">
            <mxPoint x="185" y="280" as="sourcePoint" />
          </mxGeometry>
        </mxCell>
        <mxCell id="unZ9kWCRVRVOXnhJh9XH-121" value="&lt;div&gt;Modules&lt;/div&gt;&lt;div&gt;(Core|Custom)&lt;br&gt;&lt;/div&gt;" style="text;whiteSpace=wrap;html=1;fontSize=16;fontFamily=Verdana;fontColor=#000000;align=center;" vertex="1" parent="unZ9kWCRVRVOXnhJh9XH-123">
          <mxGeometry x="90" y="290" width="180" height="50" as="geometry" />
        </mxCell>
      </root>
    </mxGraphModel>
  </diagram>
</mxfile>
